<?xml version="1.0" encoding="utf-8"?>
<!-- Generator: Adobe Illustrator 23.0.0, SVG Export Plug-In . SVG Version: 6.00 Build 0)  -->
<svg version="1.1" id="Layer_1" xmlns="http://www.w3.org/2000/svg" xmlns:xlink="http://www.w3.org/1999/xlink" x="0px" y="0px"
	 viewBox="0 0 80 85" style="enable-background:new 0 0 80 85;" xml:space="preserve">
<style type="text/css">
	.st0{fill:none;stroke:#000000;stroke-width:4;stroke-linecap:round;stroke-linejoin:round;stroke-miterlimit:10;}
	.st1{fill:none;stroke:#000000;stroke-width:4;stroke-linejoin:round;stroke-miterlimit:10;}
	.st2{fill:none;stroke:#000000;stroke-width:3;stroke-linecap:round;stroke-linejoin:round;stroke-miterlimit:10;}
</style>
<path class="st0" d="M3.72,23.23c0-4.63,3.75-8.38,8.38-8.38s8.38,3.75,8.38,8.38H3.72z"/>
<line class="st0" x1="20.49" y1="23.23" x2="20.49" y2="63.98"/>
<path class="st0" d="M28.87,72.36h38.25c4.63,0,8.38-3.75,8.38-8.38H37.26C37.26,68.61,33.5,72.36,28.87,72.36s-8.38-3.75-8.38-8.38
	"/>
<line class="st1" x1="62.45" y1="52.35" x2="62.45" y2="62.74"/>
<line class="st1" x1="62.45" y1="21.85" x2="62.45" y2="39.7"/>
<line class="st0" x1="12.11" y1="14.85" x2="54.96" y2="14.85"/>
<path class="st0" d="M54.06,14.85c5.01-0.27,8.88,3.4,8.38,8.38"/>
<g>
	<g>
		<polygon class="st2" points="38.76,23.9 43.22,34.42 49.55,27.65 		"/>
		
			<rect x="55.11" y="25.26" transform="matrix(0.6829 -0.7305 0.7305 0.6829 -12.8463 57.4397)" class="st2" width="9.27" height="36.51"/>
	</g>
	<line class="st2" x1="66.02" y1="55.73" x2="72.35" y2="48.96"/>
</g>
<line class="st0" x1="28.95" y1="28.28" x2="39.52" y2="28.28"/>
<line class="st0" x1="28.95" y1="41.7" x2="49.94" y2="41.7"/>
<line class="st0" x1="28.95" y1="55.13" x2="56.51" y2="55.13"/>
<line class="st0" x1="50.66" y1="28.28" x2="56.51" y2="28.28"/>
</svg>
