<?xml version="1.0" encoding="utf-8"?>
<!-- Generator: Adobe Illustrator 23.0.0, SVG Export Plug-In . SVG Version: 6.00 Build 0)  -->
<svg version="1.1" id="Layer_1" xmlns="http://www.w3.org/2000/svg" xmlns:xlink="http://www.w3.org/1999/xlink" x="0px" y="0px"
	 viewBox="0 0 80 85" style="enable-background:new 0 0 80 85;" xml:space="preserve">
<style type="text/css">
	.st0{fill:none;stroke:#000000;stroke-width:4;stroke-linecap:round;stroke-linejoin:round;stroke-miterlimit:10;}
	.st1{fill:none;stroke:#000000;stroke-width:3;stroke-linecap:round;stroke-linejoin:round;stroke-miterlimit:10;}
	.st2{fill:none;stroke:#000000;stroke-width:4;stroke-miterlimit:10;}
	.st3{fill:none;stroke:#000000;stroke-width:4;stroke-miterlimit:10;stroke-dasharray:3.6198,3.6198;}
	.st4{fill:none;stroke:#000000;stroke-width:4;stroke-miterlimit:10;stroke-dasharray:3.9926,3.9926;}
	.st5{fill:none;stroke:#000000;stroke-width:4;stroke-miterlimit:10;stroke-dasharray:2.1798,2.1798;}
</style>
<line class="st0" x1="39.15" y1="75.21" x2="39.15" y2="66.39"/>
<g>
	<path class="st0" d="M53.49,68.74c-6.5,1.89-13.23,0.46-14.14-2.66c-0.91-3.11,0.58-8.44,7.08-10.33
		c6.5-1.89,20.49,3.13,20.49,3.13S59.99,66.84,53.49,68.74z"/>
	<path class="st0" d="M40.26,64.45c0,0,7.36-3.22,13.11-2.77"/>
</g>
<g>
	<path class="st0" d="M25.48,66.7c6.28,2.52,13.12,1.75,14.33-1.26c1.21-3.01,0.25-8.45-6.04-10.98s-20.7,1.11-20.7,1.11
		S19.2,64.18,25.48,66.7z"/>
	<path class="st0" d="M39.06,63.74c0,0-7.01-3.93-12.77-4.04"/>
</g>
<rect x="13.54" y="76.54" class="st0" width="52.34" height="5.43"/>
<g>
	<polygon class="st0" points="75.31,19.75 57.2,32.61 50.18,16.77 62.68,7.9 	"/>
	<path class="st0" d="M64.55,9.65c0,0,13.39-14.8,7.24,6.79"/>
	<line class="st0" x1="54.86" y1="30.63" x2="44.91" y2="30.5"/>
	<polygon class="st1" points="44.91,29.42 39.94,35.95 37.8,25.31 	"/>
	<line class="st0" x1="53.24" y1="25.4" x2="44.6" y2="28.84"/>
</g>
<g>
	<g>
		<path class="st2" d="M32.68,25.4c0,0-0.75-0.09-1.99-0.12"/>
		<path class="st3" d="M27.07,25.38c-5.38,0.43-13.16,2.33-16.49,9.39"/>
		<path class="st2" d="M9.9,36.46c-0.2,0.61-0.38,1.25-0.52,1.93"/>
	</g>
</g>
<g>
	<g>
		<path class="st2" d="M31.85,32.61c0,0-1.5-0.11-3.47,0.36"/>
		<path class="st4" d="M24.71,34.49c-1.49,0.94-2.91,2.33-3.94,4.41"/>
		<path class="st2" d="M20.03,40.76c-0.32,1.01-0.56,2.15-0.69,3.43"/>
	</g>
</g>
<g>
	<g>
		<path class="st2" d="M36.45,38.39c0,0-0.64,0.04-1.41,0.48"/>
		<path class="st5" d="M33.51,40.4c-0.45,0.74-0.8,1.74-0.9,3.11"/>
		<path class="st2" d="M32.58,44.61c0.01,0.46,0.04,0.96,0.1,1.5"/>
	</g>
</g>
</svg>
